<svg width="40" height="40" viewBox="0 0 40 40" fill="none" xmlns="http://www.w3.org/2000/svg">
<rect width="40" height="40" rx="12" fill="#E2E8F0"/>
<path d="M28.329 31.1099H11.6623C10.8953 31.1099 10.2734 30.4881 10.2734 29.721V26.9433C10.2734 23.875 12.7607 21.3877 15.829 21.3877H24.1623C27.2306 21.3877 29.7179 23.875 29.7179 26.9433V29.721C29.7179 30.4881 29.0961 31.1099 28.329 31.1099Z" fill="#F8FAFC"/>
<path d="M19.9997 18.6117C22.3009 18.6117 24.1663 16.7462 24.1663 14.445C24.1663 12.1438 22.3009 10.2783 19.9997 10.2783C17.6985 10.2783 15.833 12.1438 15.833 14.445C15.833 16.7462 17.6985 18.6117 19.9997 18.6117Z" fill="#F8FAFC"/>
</svg>
