<svg width="48" height="48" viewBox="0 0 48 48" fill="none" xmlns="http://www.w3.org/2000/svg">
<path d="M19.9174 8.13706C22.4575 5.95171 26.2142 5.95171 28.7543 8.13706C29.8515 9.08105 31.2221 9.64881 32.6654 9.75718C36.007 10.008 38.6637 12.6646 38.9145 16.0062C39.0228 17.4496 39.5906 18.8201 40.5346 19.9173C42.7201 22.4575 42.72 26.2141 40.5346 28.7542C39.5906 29.8514 39.0229 31.2221 38.9145 32.6654C38.6637 36.007 36.007 38.6636 32.6654 38.9144C31.2221 39.0228 29.8515 39.5905 28.7543 40.5345C26.2141 42.7201 22.4576 42.7201 19.9174 40.5345C18.8202 39.5905 17.4496 39.0228 16.0063 38.9144C12.6647 38.6636 10.008 36.007 9.75724 32.6654C9.64884 31.2221 9.08108 29.8514 8.13712 28.7542C5.95174 26.2141 5.95164 22.4575 8.13712 19.9173C9.08114 18.8201 9.64891 17.4496 9.75724 16.0062C10.008 12.6646 12.6647 10.008 16.0063 9.75718C17.4496 9.6488 18.8202 9.08105 19.9174 8.13706ZM33.0903 17.9427C32.3205 17.25 31.1345 17.3117 30.4418 18.0814L22.6498 26.7396L18.0365 22.8958C17.241 22.2329 16.0588 22.3406 15.3959 23.1361C14.733 23.9316 14.8397 25.1138 15.6352 25.7767L21.266 30.4681C22.2466 31.2852 23.6972 31.1813 24.5512 30.2328L33.2299 20.5902C33.9224 19.8205 33.8597 18.6354 33.0903 17.9427Z" fill="url(#paint0_linear_24375_5594)"/>
<defs>
<linearGradient id="paint0_linear_24375_5594" x1="15.4983" y1="30.9994" x2="41.9987" y2="9.99882" gradientUnits="userSpaceOnUse">
<stop stop-color="#EEF3FF"/>
<stop offset="1" stop-color="#A6C2FC"/>
</linearGradient>
</defs>
</svg>
